# This file uses centimeters as units for non-parametric coordinates.

mtllib mawusu.mtl
g default
v 0.809018 0.328351 0.000000
v 0.309017 0.531282 0.000000
v -0.309017 0.531282 0.000000
v -0.809017 0.328350 0.000000
v -1.000000 -0.000000 0.000000
v -0.809017 -0.328350 0.000000
v -0.309017 -0.531282 0.000000
v 0.309017 -0.531282 0.000000
v 0.809017 -0.328350 0.000000
v 1.000000 -0.000000 0.000000
v 0.818998 0.332401 0.040624
v 0.312829 0.537836 0.040624
v -0.312829 0.537836 0.040624
v -0.818998 0.332401 0.040624
v -1.012337 -0.000000 0.040624
v -0.818998 -0.332401 0.040624
v -0.312829 -0.537836 0.040624
v 0.312829 -0.537836 0.040624
v 0.818997 -0.332401 0.040624
v 1.012336 -0.000000 0.040624
v 0.769421 0.312280 0.260201
v 0.293893 0.505280 0.260201
v -0.293893 0.505279 0.260201
v -0.769421 0.312280 0.260201
v -0.951057 -0.000000 0.260201
v -0.769421 -0.312280 0.260201
v -0.293893 -0.505279 0.260201
v 0.293893 -0.505279 0.260201
v 0.769421 -0.312280 0.260201
v 0.951057 -0.000000 0.260201
v 0.696170 0.282550 0.471035
v 0.265913 0.457175 0.471035
v -0.265913 0.457175 0.471035
v -0.696170 0.282550 0.471035
v -0.860513 0.000000 0.471035
v -0.696170 -0.282550 0.471035
v -0.265913 -0.457175 0.471035
v 0.265913 -0.457175 0.471035
v 0.696169 -0.282550 0.471035
v 0.860513 0.000000 0.471035
v 0.572062 0.232179 0.707107
v 0.218508 0.375673 0.707107
v -0.218508 0.375673 0.707107
v -0.572062 0.232179 0.707107
v -0.707107 -0.000000 0.707107
v -0.572062 -0.232179 0.707107
v -0.218508 -0.375673 0.707107
v 0.218508 -0.375673 0.707107
v 0.572061 -0.232179 0.707107
v 0.707107 -0.000000 0.707107
v 0.367286 0.149068 0.891007
v 0.140291 0.241197 0.891007
v -0.140291 0.241197 0.891007
v -0.367286 0.149068 0.891007
v -0.453991 -0.000000 0.891007
v -0.367286 -0.149068 0.891007
v -0.140291 -0.241197 0.891007
v 0.140291 -0.241197 0.891007
v 0.367286 -0.149068 0.891007
v 0.453991 -0.000000 0.891007
v 0.126558 0.051365 0.987688
v 0.048341 0.083111 0.987688
v -0.048341 0.083111 0.987688
v -0.126558 0.051365 0.987688
v -0.156435 -0.000000 0.987688
v -0.126558 -0.051365 0.987688
v -0.048341 -0.083111 0.987688
v 0.048341 -0.083111 0.987688
v 0.126558 -0.051365 0.987688
v 0.156434 -0.000000 0.987688
v 0.000000 -0.000000 1.000000
vt 0.142043 0.060053
vt 0.298731 0.003906
vt 0.459844 0.024567
vt 0.604661 0.115988
vt 0.726211 0.245449
vt 0.152118 0.610046
vt 0.326048 0.541541
vt 0.511729 0.539030
vt 0.684985 0.599898
vt 0.835007 0.696676
vt 0.145347 0.073702
vt 0.299309 0.018191
vt 0.457391 0.038467
vt 0.599830 0.128711
vt 0.009359 0.732998
vt 0.157080 0.621454
vt 0.327953 0.553846
vt 0.510142 0.551386
vt 0.680581 0.611535
vt 0.007612 0.182291
vt 0.163943 0.147693
vt 0.302395 0.095948
vt 0.443789 0.113812
vt 0.572572 0.196662
vt 0.051120 0.789426
vt 0.184761 0.683211
vt 0.338260 0.620832
vt 0.501192 0.618396
vt 0.655401 0.673869
vt 0.038875 0.251984
vt 0.184866 0.220557
vt 0.306232 0.172970
vt 0.430157 0.188517
vt 0.543632 0.263647
vt 0.100027 0.844052
vt 0.214998 0.743697
vt 0.349360 0.687085
vt 0.492152 0.684855
vt 0.628217 0.735578
vt 0.076487 0.320525
vt 0.215034 0.307361
vt 0.312374 0.266308
vt 0.412555 0.278824
vt 0.504102 0.342462
vt 0.170764 0.903653
vt 0.257003 0.815091
vt 0.364514 0.767185
vt 0.479943 0.765337
vt 0.589979 0.808880
vt 0.132581 0.397510
vt 0.257213 0.398576
vt 0.322504 0.369266
vt 0.391115 0.378306
vt 0.452405 0.424225
vt 0.263152 0.951641
vt 0.313100 0.888786
vt 0.385059 0.855115
vt 0.464153 0.854255
vt 0.538110 0.886279
vt 0.208448 0.463985
vt 0.309813 0.485532
vt 0.336275 0.474715
vt 0.364791 0.479638
vt 0.388857 0.498928
vt 0.363370 0.981253
vt 0.380720 0.957469
vt 0.409977 0.944743
vt 0.442952 0.945396
vt 0.472102 0.959061
vt 0.292704 0.510479
vt 0.335230 0.528767
vt 0.345172 0.528121
vt 0.355663 0.531637
vt 0.362593 0.537825
vt 0.407347 0.994623
vt 0.413501 0.991712
vt 0.424791 0.989892
vt 0.437072 0.991609
vt 0.445521 0.996094
vt 0.329644 0.531310
vt 0.489965 0.983256
vt 0.402225 0.528805
vt 0.593104 0.948994
vt 0.494585 0.502770
vt 0.683623 0.891974
vt 0.577996 0.449162
vt 0.749104 0.826038
vt 0.640488 0.382206
vt 0.793460 0.767931
vt 0.683993 0.321508
vt 0.830278 0.708571
vt 0.721076 0.258426
vt 0.003906 0.168278
vt 0.003906 0.721326
vn 0.603603 0.785043 0.139181
vn 0.594182 0.772790 -0.223030
vn 0.175901 0.969113 -0.172857
vn 0.177561 0.978255 0.107189
vn -0.175901 0.969112 -0.172857
vn -0.177561 0.978255 0.107189
vn -0.594182 0.772790 -0.223030
vn -0.603603 0.785043 0.139181
vn -0.956854 0.000000 -0.290568
vn -0.983042 -0.000000 0.183383
vn -0.594182 -0.772790 -0.223031
vn -0.603603 -0.785043 0.139181
vn -0.175901 -0.969112 -0.172858
vn -0.177561 -0.978255 0.107189
vn 0.175901 -0.969112 -0.172858
vn 0.177561 -0.978255 0.107190
vn 0.594182 -0.772791 -0.223030
vn 0.603603 -0.785043 0.139181
vn 0.956854 -0.000001 -0.290568
vn 0.983042 -0.000001 0.183383
vn 0.589956 0.767293 0.251423
vn 0.175146 0.964954 0.195417
vn -0.175147 0.964954 0.195417
vn -0.589956 0.767293 0.251423
vn -0.945387 -0.000000 0.325951
vn -0.589955 -0.767293 0.251423
vn -0.175146 -0.964954 0.195417
vn 0.175147 -0.964954 0.195417
vn 0.589956 -0.767293 0.251423
vn 0.945387 -0.000001 0.325951
vn 0.566433 0.736700 0.369360
vn 0.170827 0.941154 0.291630
vn -0.170827 0.941154 0.291630
vn -0.566433 0.736700 0.369360
vn -0.884470 0.000000 0.466597
vn -0.566433 -0.736700 0.369360
vn -0.170827 -0.941154 0.291630
vn 0.170827 -0.941154 0.291630
vn 0.566433 -0.736700 0.369360
vn 0.884470 -0.000001 0.466597
vn 0.509638 0.662832 0.548564
vn 0.159526 0.878897 0.449546
vn -0.159527 0.878897 0.449546
vn -0.509638 0.662832 0.548564
vn -0.754140 0.000000 0.656713
vn -0.509638 -0.662832 0.548564
vn -0.159526 -0.878897 0.449546
vn 0.159527 -0.878897 0.449546
vn 0.509638 -0.662832 0.548564
vn 0.754140 -0.000001 0.656713
vn 0.381842 0.496621 0.779464
vn 0.129191 0.711767 0.690432
vn -0.129191 0.711767 0.690432
vn -0.381842 0.496621 0.779464
vn -0.517965 0.000000 0.855402
vn -0.381842 -0.496622 0.779464
vn -0.129191 -0.711768 0.690432
vn 0.129191 -0.711768 0.690432
vn 0.381842 -0.496622 0.779464
vn 0.517964 -0.000000 0.855402
vn 0.228368 0.297014 0.927163
vn 0.083238 0.458591 0.884741
vn -0.083238 0.458591 0.884741
vn -0.228368 0.297014 0.927163
vn -0.291255 0.000000 0.956645
vn -0.228368 -0.297014 0.927163
vn -0.083238 -0.458591 0.884741
vn 0.083238 -0.458591 0.884741
vn 0.228368 -0.297014 0.927163
vn 0.291255 -0.000000 0.956646
vn -0.000000 -0.000000 1.000000
s 1
g pSphere1
usemtl initialShadingGroup
f 11/11/1 1/1/2 2/2/3 12/12/4
f 12/12/4 2/2/3 3/3/5 13/13/6
f 13/13/6 3/3/5 4/4/7 14/14/8
f 14/14/8 4/4/7 5/5/9 15/92/10
f 15/15/10 5/94/9 6/6/11 16/16/12
f 16/16/12 6/6/11 7/7/13 17/17/14
f 17/17/14 7/7/13 8/8/15 18/18/16
f 18/18/16 8/8/15 9/9/17 19/19/18
f 19/19/18 9/9/17 10/10/19 20/91/20
f 20/20/20 10/93/19 1/1/2 11/11/1
f 21/21/21 11/11/1 12/12/4 22/22/22
f 22/22/22 12/12/4 13/13/6 23/23/23
f 23/23/23 13/13/6 14/14/8 24/24/24
f 24/24/24 14/14/8 15/92/10 25/90/25
f 25/25/25 15/15/10 16/16/12 26/26/26
f 26/26/26 16/16/12 17/17/14 27/27/27
f 27/27/27 17/17/14 18/18/16 28/28/28
f 28/28/28 18/18/16 19/19/18 29/29/29
f 29/29/29 19/19/18 20/91/20 30/89/30
f 30/30/30 20/20/20 11/11/1 21/21/21
f 31/31/31 21/21/21 22/22/22 32/32/32
f 32/32/32 22/22/22 23/23/23 33/33/33
f 33/33/33 23/23/23 24/24/24 34/34/34
f 34/34/34 24/24/24 25/90/25 35/88/35
f 35/35/35 25/25/25 26/26/26 36/36/36
f 36/36/36 26/26/26 27/27/27 37/37/37
f 37/37/37 27/27/27 28/28/28 38/38/38
f 38/38/38 28/28/28 29/29/29 39/39/39
f 39/39/39 29/29/29 30/89/30 40/87/40
f 40/40/40 30/30/30 21/21/21 31/31/31
f 41/41/41 31/31/31 32/32/32 42/42/42
f 42/42/42 32/32/32 33/33/33 43/43/43
f 43/43/43 33/33/33 34/34/34 44/44/44
f 44/44/44 34/34/34 35/88/35 45/86/45
f 45/45/45 35/35/35 36/36/36 46/46/46
f 46/46/46 36/36/36 37/37/37 47/47/47
f 47/47/47 37/37/37 38/38/38 48/48/48
f 48/48/48 38/38/38 39/39/39 49/49/49
f 49/49/49 39/39/39 40/87/40 50/85/50
f 50/50/50 40/40/40 31/31/31 41/41/41
f 51/51/51 41/41/41 42/42/42 52/52/52
f 52/52/52 42/42/42 43/43/43 53/53/53
f 53/53/53 43/43/43 44/44/44 54/54/54
f 54/54/54 44/44/44 45/86/45 55/84/55
f 55/55/55 45/45/45 46/46/46 56/56/56
f 56/56/56 46/46/46 47/47/47 57/57/57
f 57/57/57 47/47/47 48/48/48 58/58/58
f 58/58/58 48/48/48 49/49/49 59/59/59
f 59/59/59 49/49/49 50/85/50 60/83/60
f 60/60/60 50/50/50 41/41/41 51/51/51
f 61/61/61 51/51/51 52/52/52 62/62/62
f 62/62/62 52/52/52 53/53/53 63/63/63
f 63/63/63 53/53/53 54/54/54 64/64/64
f 64/64/64 54/54/54 55/84/55 65/82/65
f 65/65/65 55/55/55 56/56/56 66/66/66
f 66/66/66 56/56/56 57/57/57 67/67/67
f 67/67/67 57/57/57 58/58/58 68/68/68
f 68/68/68 58/58/58 59/59/59 69/69/69
f 69/69/69 59/59/59 60/83/60 70/81/70
f 70/70/70 60/60/60 51/51/51 61/61/61
f 71/71/71 61/61/61 62/62/62
f 71/72/71 62/62/62 63/63/63
f 71/73/71 63/63/63 64/64/64
f 71/74/71 64/64/64 65/82/65
f 71/75/71 65/65/65 66/66/66
f 71/76/71 66/66/66 67/67/67
f 71/77/71 67/67/67 68/68/68
f 71/78/71 68/68/68 69/69/69
f 71/79/71 69/69/69 70/81/70
f 71/80/71 70/70/70 61/61/61
