# Blender v2.82 (sub 7) OBJ File: ''
# www.blender.org
mtllib Tile04.mtl
o Cylinder_Cylinder.001
v 0.000000 -0.500000 -2.000000
v 0.000000 0.500000 -2.000000
v 1.732051 -0.500000 -1.000000
v 1.732051 0.500000 -1.000000
v 1.732051 -0.500000 1.000000
v 1.732051 0.500000 1.000000
v -0.000000 -0.500000 2.000000
v -0.000000 0.500000 2.000000
v -1.732051 -0.500000 1.000000
v -1.732051 0.500000 1.000000
v -1.732051 -0.500000 -1.000000
v -1.732051 0.500000 -1.000000
vt 0.265798 0.474048
vt 0.265798 0.647154
vt 0.208096 0.647154
vt 0.208096 0.474048
vt 0.256342 0.432502
vt 0.256342 0.613312
vt 0.196072 0.613312
vt 0.196072 0.432502
vt 0.253039 0.462423
vt 0.253039 0.597142
vt 0.208132 0.597142
vt 0.208132 0.462423
vt 0.259732 0.469657
vt 0.259732 0.603468
vt 0.215129 0.603468
vt 0.215129 0.469657
vt 0.735491 0.991947
vt 0.267434 0.992612
vt 0.006605 0.502091
vt 0.265327 0.007176
vt 0.735520 0.007716
vt 0.993453 0.498786
vt 0.218570 0.643719
vt 0.218570 0.499398
vt 0.266677 0.499398
vt 0.266677 0.643719
vt 0.265170 0.489351
vt 0.265170 0.627673
vt 0.219062 0.627673
vt 0.219062 0.489351
vt 0.734575 0.991765
vt 0.994431 0.502393
vt 0.736930 0.005688
vt 0.265014 0.004726
vt 0.006192 0.498451
vt 0.265131 0.990424
vn 0.5000 0.0000 -0.8660
vn 1.0000 0.0000 0.0000
vn 0.5000 0.0000 0.8660
vn -0.5000 0.0000 0.8660
vn 0.0000 1.0000 0.0000
vn -1.0000 0.0000 0.0000
vn -0.5000 0.0000 -0.8660
vn 0.0000 -1.0000 0.0000
usemtl Material.005
s off
f 1/1/1 2/2/1 4/3/1 3/4/1
f 3/5/2 4/6/2 6/7/2 5/8/2
f 5/9/3 6/10/3 8/11/3 7/12/3
f 7/13/4 8/14/4 10/15/4 9/16/4
f 4/17/5 2/18/5 12/19/5 10/20/5 8/21/5 6/22/5
f 9/23/6 10/24/6 12/25/6 11/26/6
f 11/27/7 12/28/7 2/29/7 1/30/7
f 1/31/8 3/32/8 5/33/8 7/34/8 9/35/8 11/36/8
